<?xml version="1.0" encoding="utf-8"?>
<!-- Generator: Adobe Illustrator 25.0.0, SVG Export Plug-In . SVG Version: 6.00 Build 0)  -->
<svg version="1.1" id="Layer_1" xmlns="http://www.w3.org/2000/svg" xmlns:xlink="http://www.w3.org/1999/xlink" x="0px" y="0px"
	 viewBox="0 0 310.4 30" style="enable-background:new 0 0 310.4 30;" xml:space="preserve">
<g>
	<g>
		<path d="M127.6,8.9h1.6l1.9,8.9l1.8-8.9h1.5L131.8,21h-1.5L127.6,8.9z"/>
		<path d="M136.6,8.9h1.7V21h-1.7V8.9z"/>
		<path d="M141,8.9h2.4c1.2,0,2.1,0.3,2.7,0.8c0.6,0.5,0.9,1.3,0.9,2.5c0,1.6-0.5,2.5-1.5,2.8l1.7,6.1h-1.6l-1.6-5.7h-1.3V21H141
			V8.9z M143.3,14.1c0.7,0,1.2-0.1,1.6-0.4c0.3-0.3,0.5-0.8,0.5-1.6c0-0.5-0.1-0.9-0.2-1.2c-0.1-0.3-0.3-0.5-0.6-0.6
			s-0.7-0.2-1.2-0.2h-0.7v4H143.3z"/>
		<path d="M150.8,10.2h-2V8.9h5.7v1.3h-2V21h-1.7V10.2z"/>
		<path d="M157.6,20.7c-0.5-0.3-0.8-0.8-1-1.4c-0.2-0.6-0.3-1.4-0.3-2.3v-8h1.6V17c0,0.9,0.1,1.6,0.3,2.1c0.2,0.5,0.6,0.7,1.3,0.7
			s1.1-0.2,1.3-0.7c0.2-0.5,0.3-1.2,0.3-2.1V8.9h1.6v8c0,0.9-0.1,1.7-0.3,2.3c-0.2,0.6-0.5,1.1-1,1.4c-0.5,0.3-1.1,0.5-2,0.5
			S158.1,21,157.6,20.7z"/>
		<path d="M167.2,8.9h1.6l2.6,12.1h-1.6l-0.6-3.1h-2.5l-0.6,3.1h-1.6L167.2,8.9z M169.1,16.8l-1-5.5l-1,5.5H169.1z"/>
		<path d="M173.4,8.9h1.7v10.9h3.1V21h-4.8V8.9z"/>
		<path d="M184.8,20.1c-0.5-0.7-0.7-1.7-0.7-3.1V13c0-0.9,0.1-1.7,0.3-2.3c0.2-0.6,0.5-1.1,1-1.4c0.5-0.3,1.1-0.5,2-0.5
			c1.1,0,1.9,0.3,2.4,0.9c0.5,0.6,0.7,1.5,0.7,2.7v0.4h-1.6v-0.4c0-0.6,0-1-0.1-1.3c-0.1-0.3-0.2-0.6-0.4-0.7
			c-0.2-0.2-0.6-0.2-1-0.2c-0.5,0-0.8,0.1-1,0.3c-0.2,0.2-0.4,0.5-0.4,0.9c-0.1,0.4-0.1,0.8-0.1,1.4v4.5c0,0.9,0.1,1.6,0.3,2
			c0.2,0.4,0.7,0.6,1.3,0.6c0.6,0,1.1-0.2,1.3-0.7c0.2-0.4,0.4-1.1,0.4-2.1v-0.8h-1.5V15h3.1v6h-1.1l-0.2-1.4
			c-0.4,1-1.1,1.5-2.2,1.5C186.1,21.2,185.3,20.8,184.8,20.1z"/>
		<path d="M193,8.9h2.4c1.2,0,2.1,0.3,2.7,0.8c0.6,0.5,0.9,1.3,0.9,2.5c0,1.6-0.5,2.5-1.5,2.8l1.7,6.1h-1.6l-1.6-5.7h-1.3V21H193
			V8.9z M195.4,14.1c0.7,0,1.2-0.1,1.6-0.4c0.3-0.3,0.5-0.8,0.5-1.6c0-0.5-0.1-0.9-0.2-1.2c-0.1-0.3-0.3-0.5-0.6-0.6
			c-0.3-0.1-0.7-0.2-1.2-0.2h-0.7v4H195.4z"/>
		<path d="M203.5,8.9h1.6l2.6,12.1h-1.6l-0.6-3.1h-2.5l-0.6,3.1h-1.6L203.5,8.9z M205.3,16.8l-1-5.5l-1,5.5H205.3z"/>
		<path d="M209.7,8.9h3c1,0,1.8,0.3,2.3,0.9s0.7,1.4,0.7,2.5c0,1-0.3,1.8-0.8,2.3c-0.5,0.5-1.2,0.8-2.2,0.8h-1.3V21h-1.7V8.9z
			 M212.1,14.2c0.5,0,0.9-0.1,1.2-0.2c0.3-0.1,0.5-0.3,0.6-0.6c0.1-0.3,0.2-0.7,0.2-1.2c0-0.6,0-1.1-0.1-1.4
			c-0.1-0.3-0.3-0.5-0.5-0.6c-0.3-0.1-0.7-0.2-1.2-0.2h-0.8v4.1H212.1z"/>
		<path d="M217.6,8.9h1.7v5.2h3.1V8.9h1.7V21h-1.7v-5.7h-3.1V21h-1.7V8.9z"/>
		<path d="M226.8,8.9h1.7V21h-1.7V8.9z"/>
		<path d="M231.7,20.1c-0.5-0.7-0.7-1.7-0.7-3v-4.3c0-1.3,0.2-2.3,0.7-3c0.5-0.7,1.3-1,2.5-1c1.1,0,1.9,0.3,2.3,0.9
			c0.5,0.6,0.7,1.5,0.7,2.6v1h-1.6v-0.9c0-0.6,0-1-0.1-1.3c0-0.3-0.2-0.5-0.4-0.7s-0.5-0.3-1-0.3c-0.5,0-0.8,0.1-1,0.3
			c-0.2,0.2-0.4,0.5-0.4,0.8c-0.1,0.3-0.1,0.8-0.1,1.4v4.8c0,0.6,0,1.1,0.1,1.5s0.3,0.6,0.5,0.7c0.2,0.2,0.5,0.2,0.9,0.2
			c0.4,0,0.7-0.1,1-0.3c0.2-0.2,0.3-0.4,0.4-0.8c0.1-0.3,0.1-0.8,0.1-1.3v-0.9h1.6v0.9c0,1.2-0.2,2.1-0.7,2.8c-0.5,0.6-1.2,1-2.4,1
			C233,21.2,232.2,20.8,231.7,20.1z"/>
		<path d="M243.8,8.9h2.6c1.3,0,2.2,0.3,2.8,0.9s0.8,1.5,0.8,2.8v4.5c0,1.3-0.3,2.3-0.8,3c-0.5,0.7-1.4,1-2.7,1h-2.8V8.9z
			 M246.5,19.8c0.6,0,1-0.1,1.3-0.3c0.3-0.2,0.4-0.5,0.5-0.9c0.1-0.4,0.1-1,0.1-1.8v-3.9c0-0.7,0-1.2-0.1-1.6
			c-0.1-0.4-0.3-0.6-0.5-0.8c-0.3-0.2-0.7-0.3-1.3-0.3h-0.9v9.6H246.5z"/>
		<path d="M252.4,8.9h4.7v1.3h-3v4h2.4v1.2h-2.4v4.4h3V21h-4.7V8.9z"/>
		<path d="M259.8,20.2c-0.5-0.6-0.8-1.5-0.9-2.6l1.5-0.4c0,0.8,0.2,1.4,0.5,1.9c0.3,0.5,0.7,0.7,1.3,0.7c0.4,0,0.8-0.1,1-0.4
			c0.2-0.2,0.3-0.6,0.3-1.1c0-0.5-0.1-0.9-0.3-1.2c-0.2-0.3-0.5-0.7-1-1.1l-2-1.8c-0.4-0.4-0.7-0.7-0.9-1.2
			c-0.2-0.4-0.3-0.9-0.3-1.5c0-0.9,0.3-1.6,0.8-2.1c0.5-0.5,1.2-0.7,2.1-0.7c1,0,1.7,0.3,2.2,0.8c0.5,0.5,0.8,1.3,0.9,2.4l-1.4,0.4
			c0-0.7-0.2-1.3-0.4-1.6c-0.2-0.4-0.6-0.6-1.2-0.6c-0.4,0-0.8,0.1-1,0.3c-0.2,0.2-0.3,0.6-0.3,1c0,0.4,0.1,0.7,0.2,0.9
			c0.1,0.2,0.3,0.5,0.6,0.7l2,1.8c0.5,0.5,0.9,1,1.3,1.5c0.3,0.5,0.5,1.2,0.5,1.9c0,0.9-0.3,1.6-0.8,2.1c-0.5,0.5-1.2,0.8-2.1,0.8
			C261.1,21.2,260.3,20.9,259.8,20.2z"/>
		<path d="M267.2,8.9h1.7V21h-1.7V8.9z"/>
		<path d="M272.1,20.1c-0.5-0.7-0.7-1.7-0.7-3.1V13c0-0.9,0.1-1.7,0.3-2.3c0.2-0.6,0.5-1.1,1-1.4c0.5-0.3,1.1-0.5,2-0.5
			c1.1,0,1.9,0.3,2.4,0.9c0.5,0.6,0.7,1.5,0.7,2.7v0.4h-1.6v-0.4c0-0.6,0-1-0.1-1.3s-0.2-0.6-0.4-0.7c-0.2-0.2-0.6-0.2-1-0.2
			c-0.5,0-0.8,0.1-1,0.3c-0.2,0.2-0.4,0.5-0.4,0.9c-0.1,0.4-0.1,0.8-0.1,1.4v4.5c0,0.9,0.1,1.6,0.3,2c0.2,0.4,0.7,0.6,1.3,0.6
			c0.6,0,1.1-0.2,1.3-0.7c0.2-0.4,0.4-1.1,0.4-2.1v-0.8h-1.5V15h3.1v6h-1.1l-0.2-1.4c-0.4,1-1.1,1.5-2.2,1.5
			C273.4,21.2,272.6,20.8,272.1,20.1z"/>
		<path d="M280.3,8.9h1.2l3.4,8v-8h1.4V21h-1.1l-3.5-8.3V21h-1.4V8.9z"/>
		<path d="M289,8.9h4.7v1.3h-3v4h2.4v1.2h-2.4v4.4h3V21H289V8.9z"/>
		<path d="M295.8,8.9h2.4c1.2,0,2.1,0.3,2.7,0.8c0.6,0.5,0.9,1.3,0.9,2.5c0,1.6-0.5,2.5-1.5,2.8L302,21h-1.6l-1.6-5.7h-1.3V21h-1.7
			V8.9z M298.1,14.1c0.7,0,1.2-0.1,1.6-0.4c0.3-0.3,0.5-0.8,0.5-1.6c0-0.5-0.1-0.9-0.2-1.2c-0.1-0.3-0.3-0.5-0.6-0.6
			s-0.7-0.2-1.2-0.2h-0.7v4H298.1z"/>
	</g>
	<path d="M111.5,5.8c-4.2,0-7.5,3.6-7.5,7.4c0,4.3,7.5,11,7.5,11s7.5-6.6,7.5-11C119,9.4,115.6,5.8,111.5,5.8z M111.5,18
		c-2.6,0-4.8-2.1-4.8-4.8s2.1-4.8,4.8-4.8s4.8,2.1,4.8,4.8S114.1,18,111.5,18z"/>
	<g>
		<path d="M9.2,20.2c-0.5-0.6-0.8-1.5-0.9-2.6l1.5-0.4c0,0.8,0.2,1.4,0.5,1.9c0.3,0.5,0.7,0.7,1.3,0.7c0.4,0,0.8-0.1,1-0.4
			c0.2-0.2,0.3-0.6,0.3-1.1c0-0.5-0.1-0.9-0.3-1.2c-0.2-0.3-0.5-0.7-1-1.1l-2-1.8c-0.4-0.4-0.7-0.7-0.9-1.2
			c-0.2-0.4-0.3-0.9-0.3-1.5c0-0.9,0.3-1.6,0.8-2.1c0.5-0.5,1.2-0.7,2.1-0.7c1,0,1.7,0.3,2.2,0.8c0.5,0.5,0.8,1.3,0.9,2.4l-1.4,0.4
			c0-0.7-0.2-1.3-0.4-1.6c-0.2-0.4-0.6-0.6-1.2-0.6c-0.4,0-0.8,0.1-1,0.3c-0.2,0.2-0.3,0.6-0.3,1c0,0.4,0.1,0.7,0.2,0.9
			c0.1,0.2,0.3,0.5,0.6,0.7l2,1.8c0.5,0.5,1,1,1.3,1.5c0.3,0.5,0.5,1.2,0.5,1.9c0,0.9-0.3,1.6-0.8,2.1c-0.5,0.5-1.2,0.8-2.1,0.8
			C10.5,21.2,9.8,20.9,9.2,20.2z"/>
		<path d="M18.4,8.9h1.6L22.6,21H21L20.5,18H18L17.4,21h-1.6L18.4,8.9z M20.3,16.8l-1-5.5l-1,5.5H20.3z"/>
		<path d="M24.6,8.9h1.2l3.4,8v-8h1.4V21h-1.1l-3.5-8.3V21h-1.4V8.9z"/>
		<path d="M33.3,8.9h1.2l3.4,8v-8h1.4V21h-1.1l-3.5-8.3V21h-1.4V8.9z"/>
		<path d="M41.9,8.9h4.7v1.3h-3v4H46v1.2h-2.4v4.4h3V21h-4.7V8.9z"/>
		<path d="M52.9,8.9h3c1,0,1.8,0.3,2.3,0.9c0.5,0.6,0.7,1.4,0.7,2.5c0,1-0.3,1.8-0.8,2.3c-0.5,0.5-1.2,0.8-2.2,0.8h-1.3V21h-1.7V8.9
			z M55.4,14.2c0.5,0,0.9-0.1,1.2-0.2c0.3-0.1,0.5-0.3,0.6-0.6c0.1-0.3,0.2-0.7,0.2-1.2c0-0.6,0-1.1-0.1-1.4
			c-0.1-0.3-0.3-0.5-0.5-0.6c-0.3-0.1-0.7-0.2-1.2-0.2h-0.8v4.1H55.4z"/>
		<path d="M60.9,8.9h4.7v1.3h-3v4H65v1.2h-2.4v4.4h3V21h-4.7V8.9z"/>
		<path d="M69,10.2h-2V8.9h5.7v1.3h-2V21H69V10.2z"/>
		<path d="M74.6,8.9h4.7v1.3h-3v4h2.4v1.2h-2.4v4.4h3V21h-4.7V8.9z"/>
		<path d="M81.5,8.9h2.4c1.2,0,2.1,0.3,2.7,0.8c0.6,0.5,0.9,1.3,0.9,2.5c0,1.6-0.5,2.5-1.5,2.8l1.7,6.1H86l-1.6-5.7h-1.3V21h-1.7
			V8.9z M83.8,14.1c0.7,0,1.2-0.1,1.6-0.4c0.3-0.3,0.5-0.8,0.5-1.6c0-0.5-0.1-0.9-0.2-1.2c-0.1-0.3-0.3-0.5-0.6-0.6
			s-0.7-0.2-1.2-0.2h-0.7v4H83.8z"/>
		<path d="M90.5,20.2c-0.5-0.6-0.8-1.5-0.9-2.6l1.5-0.4c0,0.8,0.2,1.4,0.5,1.9c0.3,0.5,0.7,0.7,1.3,0.7c0.4,0,0.8-0.1,1-0.4
			c0.2-0.2,0.3-0.6,0.3-1.1c0-0.5-0.1-0.9-0.3-1.2c-0.2-0.3-0.5-0.7-1-1.1l-2-1.8c-0.4-0.4-0.7-0.7-0.9-1.2
			c-0.2-0.4-0.3-0.9-0.3-1.5c0-0.9,0.3-1.6,0.8-2.1c0.5-0.5,1.2-0.7,2.1-0.7c1,0,1.7,0.3,2.2,0.8c0.5,0.5,0.8,1.3,0.9,2.4l-1.4,0.4
			c-0.1-0.7-0.2-1.3-0.4-1.6c-0.2-0.4-0.6-0.6-1.2-0.6c-0.4,0-0.8,0.1-1,0.3c-0.2,0.2-0.3,0.6-0.3,1c0,0.4,0.1,0.7,0.2,0.9
			c0.1,0.2,0.3,0.5,0.6,0.7l2,1.8c0.5,0.5,0.9,1,1.3,1.5c0.3,0.5,0.5,1.2,0.5,1.9c0,0.9-0.3,1.6-0.8,2.1c-0.5,0.5-1.2,0.8-2.1,0.8
			C91.8,21.2,91,20.9,90.5,20.2z"/>
	</g>
</g>
</svg>
